<svg width="218" height="51" viewBox="0 0 218 51" fill="none" xmlns="http://www.w3.org/2000/svg">
<path d="M7.6 32.75C7.6 33.8167 7.73333 34.6 8 35.1C8.3 35.5667 8.85 35.9 9.65 36.1C10.4833 36.3 11.7833 36.4 13.55 36.4C13.65 36.4 13.7 36.5 13.7 36.7C13.7 36.9 13.65 37 13.55 37C12.1833 37 11.1167 36.9833 10.35 36.95L6 36.9L2.65 36.95C2.01667 36.9833 1.16667 37 0.1 37C0.0333335 37 1.41561e-07 36.9 1.41561e-07 36.7C1.41561e-07 36.5 0.0333335 36.4 0.1 36.4C1.36667 36.4 2.28333 36.3167 2.85 36.15C3.45 35.9833 3.85 35.6667 4.05 35.2C4.25 34.7 4.35 33.95 4.35 32.95V9.8C4.35 8.8 4.25 8.06667 4.05 7.6C3.85 7.13333 3.45 6.81666 2.85 6.65C2.28333 6.45 1.36667 6.35 0.1 6.35C0.0333335 6.35 1.41561e-07 6.25 1.41561e-07 6.05C1.41561e-07 5.85 0.0333335 5.75 0.1 5.75L2.6 5.8C4 5.86667 5.11667 5.9 5.95 5.9C6.78333 5.9 7.71667 5.85 8.75 5.75C9.15 5.75 9.78333 5.73333 10.65 5.7C11.5167 5.63333 12.2667 5.6 12.9 5.6C15.9667 5.6 18.4167 6.28333 20.25 7.65C22.1167 9.01667 23.05 11.1 23.05 13.9C23.05 16.1 22.5 17.95 21.4 19.45C20.3333 20.95 18.95 22.0667 17.25 22.8C15.55 23.5333 13.8 23.9 12 23.9C11.0333 23.9 10.2333 23.8167 9.6 23.65C9.5 23.65 9.45 23.5667 9.45 23.4C9.45 23.3 9.46667 23.2 9.5 23.1C9.56667 23 9.63333 22.9667 9.7 23C10.2333 23.1333 10.8333 23.2 11.5 23.2C13.7 23.2 15.55 22.4833 17.05 21.05C18.5833 19.6167 19.35 17.55 19.35 14.85C19.35 12.2167 18.6333 10.15 17.2 8.65C15.7667 7.11666 13.9333 6.35 11.7 6.35C10.5 6.35 9.63333 6.41667 9.1 6.55C8.56667 6.68333 8.18333 7 7.95 7.5C7.71667 7.96666 7.6 8.76666 7.6 9.9V32.75ZM39.3836 37.3C39.2503 37.3667 39.1169 37.4 38.9836 37.4C38.4836 37.4 38.0503 37.0167 37.6836 36.25C37.3169 35.4833 37.1336 34.4667 37.1336 33.2V23.75C37.1336 20.0167 36.0836 18.15 33.9836 18.15C32.8503 18.15 31.9836 18.5333 31.3836 19.3C30.8169 20.0333 30.4336 20.8833 30.2336 21.85C30.1003 22.4833 29.9003 22.9833 29.6336 23.35C29.4003 23.7167 28.9669 23.9 28.3336 23.9C27.8003 23.9 27.3836 23.75 27.0836 23.45C26.8169 23.15 26.6836 22.8 26.6836 22.4C26.6836 21.6 27.2003 20.8 28.2336 20C29.2669 19.2 30.5003 18.5333 31.9336 18C33.3669 17.4667 34.6503 17.2 35.7836 17.2C37.1503 17.2 38.1836 17.6333 38.8836 18.5C39.5836 19.3667 39.9336 20.6167 39.9336 22.25V31.6C39.9336 32.7667 40.0836 33.6167 40.3836 34.15C40.6836 34.6833 41.1669 34.95 41.8336 34.95C42.5003 34.95 43.3336 34.7333 44.3336 34.3H44.4336C44.5669 34.3 44.6503 34.3833 44.6836 34.55C44.7169 34.6833 44.6669 34.7833 44.5336 34.85L39.3836 37.3ZM30.3836 37.35C29.1503 37.35 28.1836 37.0333 27.4836 36.4C26.8169 35.7333 26.4836 34.9 26.4836 33.9C26.4836 32.9 26.8836 32.0333 27.6836 31.3C28.4836 30.5667 29.8003 29.8667 31.6336 29.2L37.6336 26.95L37.7836 27.6L32.4836 29.65C31.5503 30.0167 30.8669 30.45 30.4336 30.95C30.0336 31.4167 29.8336 31.9833 29.8336 32.65C29.8336 33.45 30.0836 34.1333 30.5836 34.7C31.1169 35.2333 31.8003 35.5 32.6336 35.5C33.3003 35.5 34.1003 35.2333 35.0336 34.7L38.1836 32.8L38.2836 33.45L34.5836 35.85C33.7503 36.3833 33.0169 36.7667 32.3836 37C31.7503 37.2333 31.0836 37.35 30.3836 37.35ZM53.6309 51C51.3309 51 49.5142 50.4833 48.1809 49.45C46.8809 48.45 46.2309 47.1333 46.2309 45.5C46.2309 42.5 48.7809 39.55 53.8809 36.65L54.4309 37.3C52.6975 38.1667 51.3642 39.0667 50.4309 40C49.5309 40.9667 49.0809 42.25 49.0809 43.85C49.0809 45.5833 49.6475 46.95 50.7809 47.95C51.9475 48.9833 53.5809 49.5 55.6809 49.5C57.9809 49.5 59.8642 48.8833 61.3309 47.65C62.7975 46.45 63.5309 44.8333 63.5309 42.8C63.5309 41.4667 63.1975 40.4833 62.5309 39.85C61.8975 39.25 61.0475 38.8667 59.9809 38.7C58.9475 38.5333 57.4809 38.45 55.5809 38.45C53.7475 38.4167 52.2809 38.3333 51.1809 38.2C50.0809 38.0667 49.1809 37.7333 48.4809 37.2C47.8142 36.7 47.4809 35.9167 47.4809 34.85C47.4809 33.7833 47.7975 32.8333 48.4309 32C49.0975 31.1667 50.1642 30.2 51.6309 29.1L52.1809 29.55C51.3809 30.1833 50.8142 30.7667 50.4809 31.3C50.1475 31.8333 49.9809 32.4167 49.9809 33.05C49.9809 33.8167 50.2309 34.4 50.7309 34.8C51.2309 35.2 52.0309 35.4833 53.1309 35.65C54.2642 35.7833 55.8642 35.85 57.9309 35.85C59.4309 35.85 60.7475 35.95 61.8809 36.15C63.0142 36.3167 63.9809 36.7667 64.7809 37.5C65.6142 38.2667 66.0309 39.4 66.0309 40.9C66.0309 42.7 65.4475 44.3667 64.2809 45.9C63.1142 47.4667 61.5642 48.7 59.6309 49.6C57.7309 50.5333 55.7309 51 53.6309 51ZM55.0809 30.35C53.5142 30.35 52.1475 30.0667 50.9809 29.5C49.8475 28.9 48.9809 28.1 48.3809 27.1C47.7809 26.1 47.4809 25.0167 47.4809 23.85C47.4809 21.9833 48.2142 20.4333 49.6809 19.2C51.1809 17.9667 53.0975 17.35 55.4309 17.35C57.1309 17.35 58.5309 17.6667 59.6309 18.3C60.7642 18.9 61.5975 19.7 62.1309 20.7C62.6642 21.6667 62.9309 22.6833 62.9309 23.75C62.9309 24.9167 62.5975 26.0167 61.9309 27.05C61.2975 28.05 60.3809 28.85 59.1809 29.45C58.0142 30.05 56.6475 30.35 55.0809 30.35ZM56.0309 29.6C57.1642 29.6 58.0642 29.2167 58.7309 28.45C59.4309 27.65 59.7809 26.45 59.7809 24.85C59.7809 22.7833 59.2475 21.15 58.1809 19.95C57.1142 18.7167 55.7975 18.1 54.2309 18.1C53.0642 18.1 52.1475 18.4667 51.4809 19.2C50.8475 19.9333 50.5309 21.0833 50.5309 22.65C50.5309 24.15 50.7975 25.4333 51.3309 26.5C51.8642 27.5333 52.5475 28.3167 53.3809 28.85C54.2475 29.35 55.1309 29.6 56.0309 29.6ZM59.7309 19.45C60.8642 18.7167 61.8975 18.1833 62.8309 17.85C63.7975 17.4833 64.8475 17.3 65.9809 17.3C66.0475 17.3 66.0975 17.4167 66.1309 17.65C66.1975 17.8833 66.2309 18.1333 66.2309 18.4C66.2309 18.8 66.1809 19.2 66.0809 19.6C66.0142 20 65.9142 20.1667 65.7809 20.1C65.2142 19.8667 64.6642 19.6833 64.1309 19.55C63.6309 19.4167 63.0642 19.35 62.4309 19.35C61.7642 19.35 60.9975 19.4667 60.1309 19.7L59.6809 21.1L59.7309 19.45ZM77.2605 37.6C75.3272 37.6 73.6772 37.15 72.3105 36.25C70.9439 35.35 69.8939 34.1667 69.1605 32.7C68.4605 31.2333 68.1105 29.6667 68.1105 28C68.1105 26.0333 68.5772 24.2333 69.5105 22.6C70.4439 20.9333 71.7105 19.6333 73.3105 18.7C74.9439 17.7333 76.7272 17.25 78.6605 17.25C80.5272 17.25 81.9605 17.75 82.9605 18.75C83.9605 19.75 84.4605 21.15 84.4605 22.95C84.4605 23.4167 84.4105 23.75 84.3105 23.95C84.2439 24.15 84.0939 24.25 83.8605 24.25H81.0605L81.1105 23.35C81.1105 21.6833 80.7439 20.4167 80.0105 19.55C79.2772 18.6833 78.2772 18.25 77.0105 18.25C75.2439 18.25 73.8605 18.95 72.8605 20.35C71.8939 21.75 71.4105 23.6667 71.4105 26.1C71.4105 29 72.0939 31.35 73.4605 33.15C74.8272 34.95 76.7439 35.85 79.2105 35.85C80.2105 35.85 81.0605 35.7167 81.7605 35.45C82.4939 35.1833 83.3105 34.7667 84.2105 34.2H84.2605C84.3605 34.2 84.4439 34.2667 84.5105 34.4C84.6105 34.5 84.6272 34.6 84.5605 34.7C82.2939 36.6333 79.8605 37.6 77.2605 37.6ZM70.4605 23.65L81.8105 23.45V24.25L70.5105 24.3L70.4605 23.65ZM96.3207 32.75C96.3207 33.8167 96.454 34.6 96.7207 35.1C97.0207 35.5667 97.5707 35.9 98.3707 36.1C99.204 36.3 100.504 36.4 102.271 36.4C102.371 36.4 102.421 36.5 102.421 36.7C102.421 36.9 102.371 37 102.271 37C100.904 37 99.8374 36.9833 99.0707 36.95L94.7207 36.9L91.3707 36.95C90.7374 36.9833 89.8874 37 88.8207 37C88.754 37 88.7207 36.9 88.7207 36.7C88.7207 36.5 88.754 36.4 88.8207 36.4C90.0874 36.4 91.004 36.3167 91.5707 36.15C92.1707 35.9833 92.5707 35.6667 92.7707 35.2C92.9707 34.7 93.0707 33.95 93.0707 32.95V9.8C93.0707 8.8 92.9707 8.06667 92.7707 7.6C92.5707 7.13333 92.1707 6.81666 91.5707 6.65C91.004 6.45 90.0874 6.35 88.8207 6.35C88.754 6.35 88.7207 6.25 88.7207 6.05C88.7207 5.85 88.754 5.75 88.8207 5.75L91.3207 5.8C92.7207 5.86667 93.8374 5.9 94.6707 5.9C95.504 5.9 96.4374 5.85 97.4707 5.75C97.8707 5.75 98.504 5.73333 99.3707 5.7C100.237 5.63333 100.987 5.6 101.621 5.6C104.687 5.6 107.137 6.28333 108.971 7.65C110.837 9.01667 111.771 11.1 111.771 13.9C111.771 16.1 111.221 17.95 110.121 19.45C109.054 20.95 107.671 22.0667 105.971 22.8C104.271 23.5333 102.521 23.9 100.721 23.9C99.754 23.9 98.954 23.8167 98.3207 23.65C98.2207 23.65 98.1707 23.5667 98.1707 23.4C98.1707 23.3 98.1874 23.2 98.2207 23.1C98.2874 23 98.354 22.9667 98.4207 23C98.954 23.1333 99.554 23.2 100.221 23.2C102.421 23.2 104.271 22.4833 105.771 21.05C107.304 19.6167 108.071 17.55 108.071 14.85C108.071 12.2167 107.354 10.15 105.921 8.65C104.487 7.11666 102.654 6.35 100.421 6.35C99.2207 6.35 98.354 6.41667 97.8207 6.55C97.2874 6.68333 96.904 7 96.6707 7.5C96.4374 7.96666 96.3207 8.76666 96.3207 9.9V32.75ZM115.869 37C115.769 37 115.719 36.9 115.719 36.7C115.719 36.5 115.769 36.4 115.869 36.4C116.769 36.4 117.436 36.3167 117.869 36.15C118.302 35.95 118.602 35.6167 118.769 35.15C118.936 34.65 119.019 33.9167 119.019 32.95V7.1C119.019 5.9 118.902 5.03333 118.669 4.5C118.436 3.96667 118.019 3.7 117.419 3.7C116.919 3.7 116.152 3.93333 115.119 4.4H115.019C114.919 4.4 114.836 4.31667 114.769 4.15C114.736 3.98333 114.769 3.88333 114.869 3.85L121.269 0.799998C121.336 0.766665 121.419 0.749999 121.519 0.749999C121.619 0.749999 121.719 0.799998 121.819 0.899997C121.919 0.966665 121.969 1.05 121.969 1.15V32.95C121.969 33.9167 122.036 34.6333 122.169 35.1C122.336 35.5667 122.636 35.9 123.069 36.1C123.502 36.3 124.169 36.4 125.069 36.4C125.169 36.4 125.219 36.5 125.219 36.7C125.219 36.9 125.169 37 125.069 37C124.336 37 123.736 36.9833 123.269 36.95L120.469 36.9L117.769 36.95C117.302 36.9833 116.669 37 115.869 37ZM135.86 37.4C134.193 37.4 132.893 36.8833 131.96 35.85C131.026 34.7833 130.56 33.25 130.56 31.25V23.6C130.56 22.3 130.443 21.3667 130.21 20.8C129.976 20.2 129.593 19.9 129.06 19.9C128.593 19.9 128.026 20.0667 127.36 20.4H127.31C127.176 20.4 127.076 20.3167 127.01 20.15C126.943 19.95 126.976 19.8333 127.11 19.8L132.66 17.3L132.86 17.25C132.96 17.25 133.06 17.3 133.16 17.4C133.293 17.4667 133.36 17.55 133.36 17.65V29.6C133.36 33.4667 134.76 35.4 137.56 35.4C138.826 35.4 140.11 35.0167 141.41 34.25C142.71 33.4833 143.826 32.45 144.76 31.15L145.01 31.7C143.51 33.6667 142.01 35.1167 140.51 36.05C139.01 36.95 137.46 37.4 135.86 37.4ZM146.61 31.65C146.61 32.7833 146.743 33.6 147.01 34.1C147.276 34.6 147.726 34.85 148.36 34.85C148.926 34.85 149.81 34.6167 151.01 34.15H151.11C151.243 34.15 151.326 34.2333 151.36 34.4C151.426 34.5333 151.393 34.6333 151.26 34.7L145.41 37.45L145.21 37.5C144.876 37.5 144.56 37.1167 144.26 36.35C143.96 35.5833 143.81 34.5833 143.81 33.35V23.6C143.81 22.2667 143.693 21.3167 143.46 20.75C143.26 20.1833 142.876 19.9 142.31 19.9C141.843 19.9 141.276 20.0667 140.61 20.4H140.56C140.426 20.4 140.326 20.3167 140.26 20.15C140.226 19.95 140.276 19.8333 140.41 19.8L145.96 17.3L146.11 17.25C146.21 17.25 146.31 17.3 146.41 17.4C146.543 17.4667 146.61 17.55 146.61 17.65V31.65ZM167.118 37C167.018 37 166.968 36.9 166.968 36.7C166.968 36.5 167.018 36.4 167.118 36.4C168.018 36.4 168.685 36.3167 169.118 36.15C169.551 35.95 169.835 35.6167 169.968 35.15C170.135 34.6833 170.218 33.95 170.218 32.95V24.85C170.218 22.85 169.835 21.4 169.068 20.5C168.335 19.5667 167.185 19.1 165.618 19.1C164.385 19.1 163.135 19.4833 161.868 20.25C160.635 21.0167 159.568 22.0667 158.668 23.4L158.468 22.8C159.935 20.8333 161.385 19.3833 162.818 18.45C164.251 17.5167 165.735 17.05 167.268 17.05C169.101 17.05 170.518 17.5833 171.518 18.65C172.551 19.6833 173.068 21.1833 173.068 23.15V32.95C173.068 33.95 173.135 34.6833 173.268 35.15C173.435 35.6167 173.735 35.95 174.168 36.15C174.601 36.3167 175.268 36.4 176.168 36.4C176.268 36.4 176.318 36.5 176.318 36.7C176.318 36.9 176.268 37 176.168 37C175.401 37 174.801 36.9833 174.368 36.95L171.668 36.9L168.918 36.95C168.485 36.9833 167.885 37 167.118 37ZM153.668 37C153.568 37 153.518 36.9 153.518 36.7C153.518 36.5 153.568 36.4 153.668 36.4C154.568 36.4 155.235 36.3167 155.668 36.15C156.101 35.95 156.385 35.6167 156.518 35.15C156.685 34.6833 156.768 33.95 156.768 32.95V23.05C156.768 21.9167 156.635 21.1 156.368 20.6C156.101 20.1 155.651 19.85 155.018 19.85C154.485 19.85 153.585 20.1 152.318 20.6H152.218C152.085 20.6 151.985 20.5333 151.918 20.4C151.885 20.2333 151.935 20.1167 152.068 20.05L157.868 17.3C157.935 17.2667 158.035 17.25 158.168 17.25C158.468 17.25 158.785 17.6333 159.118 18.4C159.451 19.1667 159.618 20.15 159.618 21.35V32.95C159.618 33.95 159.685 34.6833 159.818 35.15C159.985 35.6167 160.285 35.95 160.718 36.15C161.151 36.3167 161.818 36.4 162.718 36.4C162.818 36.4 162.868 36.5 162.868 36.7C162.868 36.9 162.818 37 162.718 37C161.951 37 161.351 36.9833 160.918 36.95L158.218 36.9L155.468 36.95C155.035 36.9833 154.435 37 153.668 37ZM186.248 51C183.948 51 182.131 50.4833 180.798 49.45C179.498 48.45 178.848 47.1333 178.848 45.5C178.848 42.5 181.398 39.55 186.498 36.65L187.048 37.3C185.315 38.1667 183.981 39.0667 183.048 40C182.148 40.9667 181.698 42.25 181.698 43.85C181.698 45.5833 182.265 46.95 183.398 47.95C184.565 48.9833 186.198 49.5 188.298 49.5C190.598 49.5 192.481 48.8833 193.948 47.65C195.415 46.45 196.148 44.8333 196.148 42.8C196.148 41.4667 195.815 40.4833 195.148 39.85C194.515 39.25 193.665 38.8667 192.598 38.7C191.565 38.5333 190.098 38.45 188.198 38.45C186.365 38.4167 184.898 38.3333 183.798 38.2C182.698 38.0667 181.798 37.7333 181.098 37.2C180.431 36.7 180.098 35.9167 180.098 34.85C180.098 33.7833 180.415 32.8333 181.048 32C181.715 31.1667 182.781 30.2 184.248 29.1L184.798 29.55C183.998 30.1833 183.431 30.7667 183.098 31.3C182.765 31.8333 182.598 32.4167 182.598 33.05C182.598 33.8167 182.848 34.4 183.348 34.8C183.848 35.2 184.648 35.4833 185.748 35.65C186.881 35.7833 188.481 35.85 190.548 35.85C192.048 35.85 193.365 35.95 194.498 36.15C195.631 36.3167 196.598 36.7667 197.398 37.5C198.231 38.2667 198.648 39.4 198.648 40.9C198.648 42.7 198.065 44.3667 196.898 45.9C195.731 47.4667 194.181 48.7 192.248 49.6C190.348 50.5333 188.348 51 186.248 51ZM187.698 30.35C186.131 30.35 184.765 30.0667 183.598 29.5C182.465 28.9 181.598 28.1 180.998 27.1C180.398 26.1 180.098 25.0167 180.098 23.85C180.098 21.9833 180.831 20.4333 182.298 19.2C183.798 17.9667 185.715 17.35 188.048 17.35C189.748 17.35 191.148 17.6667 192.248 18.3C193.381 18.9 194.215 19.7 194.748 20.7C195.281 21.6667 195.548 22.6833 195.548 23.75C195.548 24.9167 195.215 26.0167 194.548 27.05C193.915 28.05 192.998 28.85 191.798 29.45C190.631 30.05 189.265 30.35 187.698 30.35ZM188.648 29.6C189.781 29.6 190.681 29.2167 191.348 28.45C192.048 27.65 192.398 26.45 192.398 24.85C192.398 22.7833 191.865 21.15 190.798 19.95C189.731 18.7167 188.415 18.1 186.848 18.1C185.681 18.1 184.765 18.4667 184.098 19.2C183.465 19.9333 183.148 21.0833 183.148 22.65C183.148 24.15 183.415 25.4333 183.948 26.5C184.481 27.5333 185.165 28.3167 185.998 28.85C186.865 29.35 187.748 29.6 188.648 29.6ZM192.348 19.45C193.481 18.7167 194.515 18.1833 195.448 17.85C196.415 17.4833 197.465 17.3 198.598 17.3C198.665 17.3 198.715 17.4167 198.748 17.65C198.815 17.8833 198.848 18.1333 198.848 18.4C198.848 18.8 198.798 19.2 198.698 19.6C198.631 20 198.531 20.1667 198.398 20.1C197.831 19.8667 197.281 19.6833 196.748 19.55C196.248 19.4167 195.681 19.35 195.048 19.35C194.381 19.35 193.615 19.4667 192.748 19.7L192.298 21.1L192.348 19.45ZM209.878 37.6C207.944 37.6 206.294 37.15 204.928 36.25C203.561 35.35 202.511 34.1667 201.778 32.7C201.078 31.2333 200.728 29.6667 200.728 28C200.728 26.0333 201.194 24.2333 202.128 22.6C203.061 20.9333 204.328 19.6333 205.928 18.7C207.561 17.7333 209.344 17.25 211.278 17.25C213.144 17.25 214.578 17.75 215.578 18.75C216.578 19.75 217.078 21.15 217.078 22.95C217.078 23.4167 217.028 23.75 216.928 23.95C216.861 24.15 216.711 24.25 216.478 24.25H213.678L213.728 23.35C213.728 21.6833 213.361 20.4167 212.628 19.55C211.894 18.6833 210.894 18.25 209.628 18.25C207.861 18.25 206.478 18.95 205.478 20.35C204.511 21.75 204.028 23.6667 204.028 26.1C204.028 29 204.711 31.35 206.078 33.15C207.444 34.95 209.361 35.85 211.828 35.85C212.828 35.85 213.678 35.7167 214.378 35.45C215.111 35.1833 215.928 34.7667 216.828 34.2H216.878C216.978 34.2 217.061 34.2667 217.128 34.4C217.228 34.5 217.244 34.6 217.178 34.7C214.911 36.6333 212.478 37.6 209.878 37.6ZM203.078 23.65L214.428 23.45V24.25L203.128 24.3L203.078 23.65Z" fill="black"/>
</svg>
